# xmcd
#
# Track frame offsets:
#	150
#	39349
#	61453
#	102537
#	134956
#	178785
#	213309
#
# Disc length: 3482 seconds
#
# Revision: 1
# Processed by: cddbd v1.5.1PL0 Copyright (c) Steve Scherf et al.
# Submitted via: audiograbber 1.83.01
#
DISCID=6c0d9807
DTITLE=Dickey Betts Band - 2001-05-14 - Northern Lights,Albany, NY - Disc 1
DYEAR=1900
DGENRE=
TTITLE0=Rave On
TTITLE1=Immortal
TTITLE2=Here Comes The Blues Again
TTITLE3=Let's All Get Together
TTITLE4=I Gotta Know
TTITLE5=Blue Sky
TTITLE6=Tombstone Eyes
EXTD=
EXTT0=
EXTT1=
EXTT2=
EXTT3=
EXTT4=
EXTT5=
EXTT6=
PLAYORDER=
